<?xml version="1.0" encoding="UTF-8" standalone="no"?>
<!DOCTYPE svg PUBLIC "-//W3C//DTD SVG 1.1//EN" "http://www.w3.org/Graphics/SVG/1.1/DTD/svg11.dtd">
<svg width="100%" height="100%" viewBox="0 0 200 200" version="1.1" xmlns="http://www.w3.org/2000/svg" xmlns:xlink="http://www.w3.org/1999/xlink" xml:space="preserve" xmlns:serif="http://www.serif.com/" style="fill-rule:evenodd;clip-rule:evenodd;stroke-linejoin:round;stroke-miterlimit:2;">
    <g transform="matrix(1,0,0,1,-250.661,-257.821)">
        <g transform="matrix(1,0,0,1,135.958,13.5156)">
            <path d="M214.703,244.305C269.895,244.305 314.703,289.114 314.703,344.305C314.703,399.497 269.895,444.305 214.703,444.305C159.512,444.305 114.703,399.497 114.703,344.305C114.703,289.114 159.512,244.305 214.703,244.305ZM252.393,401.949C248.885,401.949 246.135,400.957 244.144,398.973C242.153,396.989 241.157,394.169 241.157,390.514C241.157,389.888 241.205,389.209 241.299,388.478C241.394,387.747 241.536,386.964 241.726,386.128L260.784,286.662L270.456,286.662L251.966,382.525C251.872,383.048 251.8,383.518 251.753,383.935C251.706,384.353 251.682,384.823 251.682,385.345C251.682,389.94 253.91,392.237 258.367,392.237C259.41,392.237 260.642,392.08 262.064,391.767C263.487,391.454 264.862,391.036 266.189,390.514L265.905,399.129C264.008,399.965 261.756,400.643 259.149,401.166C256.541,401.688 254.289,401.949 252.393,401.949ZM180.996,286.662L190.667,286.662L180.711,337.883C184.693,331.722 189.505,326.866 195.147,323.316C200.789,319.765 206.501,317.99 212.285,317.99C218.354,317.99 222.692,319.844 225.299,323.551C227.906,327.258 229.21,332.349 229.21,338.823C229.21,342.896 228.689,347.699 227.646,353.234L218.543,401.009L208.872,401.009L217.69,355.427C218.543,350.936 218.97,346.968 218.97,343.522C218.97,332.975 214.94,327.702 206.881,327.702C204.321,327.702 201.666,328.302 198.916,329.503C196.166,330.704 193.488,332.349 190.88,334.437C188.273,336.526 185.855,338.98 183.627,341.799C181.398,344.619 179.573,347.699 178.151,351.041L168.622,401.009L158.95,401.009L180.996,286.662Z"/>
        </g>
    </g>
</svg>
