<svg version="1.1"
	 xmlns="http://www.w3.org/2000/svg" xmlns:xlink="http://www.w3.org/1999/xlink" xmlns:a="http://ns.adobe.com/AdobeSVGViewerExtensions/3.0/"
	 x="0px" y="0px" width="400px" height="400px" viewBox="1360 34 400 400"
	 overflow="visible" enable-background="new 1360 34 400 400" xml:space="preserve">
<defs>
</defs>
<rect display="none" fill="#141414" width="2629" height="500"/>
<path d="M1651.736,237.905l-0.599-0.002c-5.509-0.032-11.616-1.077-18.083-2.185c-7.585-1.298-15.398-2.65-22.557-2.378
	c-0.94,0.036-2.968,0.534-4.597,0.934c-2.964,0.727-6.029,1.479-9.1,1.479c-1.089,0-2.135-0.099-3.106-0.293
	c-6.56-1.312-13.754-8.535-24.823-20.276c-2.11-2.238-4.103-4.352-5.726-5.975c-6.5-6.5-12.491-12.115-18.285-17.545
	c-2.213-2.074-4.408-4.131-6.611-6.218l-5.376-5.092l4.304-6.025c2.782-3.895,6.27-7.002,9.347-9.744
	c3.532-3.147,6.869-6.12,7.523-8.904c0.855-3.645,0.171-8.812-0.49-13.81c-0.591-4.466-1.202-9.084-0.847-13.422
	c4.173-50.841,45.153-87.742,97.442-87.742c11.273,0,22.782,1.712,34.206,5.09l11.956,3.535l-7.654,9.841
	c-7.16,9.206-16.143,17.046-24.829,24.627c-11.456,10-22.276,19.444-27.773,30.815c-4.343,8.984-3.721,19.181,1.707,27.975
	c5.439,8.813,14.56,14.372,23.8,14.506l0.486,0.003c22.069,0,40.447-22.159,56.662-41.709c6.659-8.029,12.949-15.613,19.104-21.084
	l10.439-9.279l3.45,13.535c9.056,35.522,1.936,71.743-19.534,99.375C1712.442,223.334,1683.124,237.902,1651.736,237.905z
	 M1612.36,216.298c8.044,0,16.289,1.412,23.564,2.657c5.759,0.986,11.199,1.917,15.312,1.941l0.497,0.001
	c26.099-0.003,50.522-12.175,67.009-33.395c15.022-19.334,21.744-43.718,19.303-68.713c-2.03,2.383-4.115,4.897-6.24,7.459
	c-17.686,21.323-39.694,47.86-69.754,47.86c-0.243,0-0.491-0.001-0.734-0.005c-14.993-0.218-29.563-8.87-38.024-22.579
	c-8.541-13.838-9.47-29.988-2.547-44.31c7.009-14.499,19.664-25.545,31.902-36.227c4.635-4.046,9.13-7.969,13.258-11.992
	c-5.294-0.852-10.559-1.28-15.753-1.28c-43.906,0-77.006,29.659-80.491,72.125c-0.207,2.521,0.261,6.056,0.757,9.799
	c0.822,6.212,1.754,13.252,0.187,19.93c-1.885,8.019-7.666,13.17-12.767,17.714c-0.598,0.533-1.188,1.059-1.763,1.581
	c0.138,0.13,0.276,0.26,0.415,0.39c5.894,5.523,11.986,11.234,18.682,17.929c1.8,1.8,3.876,4.002,6.074,6.333
	c4.129,4.38,12.532,13.292,15.914,15.208c1.163-0.104,3.174-0.598,4.688-0.969c2.622-0.644,5.333-1.309,8-1.411
	C1610.683,216.313,1611.519,216.298,1612.36,216.298z"/>
<path d="M1682.192,427.403c-8.407,0-16.941-1.911-25.365-5.681c-13.854-6.201-27.509-21.169-40.713-35.644
	c-4.611-5.055-8.968-9.83-13.093-13.954c-3.986-3.987-8.64-8.246-13.566-12.755c-14.481-13.253-29.455-26.957-35.975-40.931
	c-6.366-13.635-7.023-27.646-1.98-43.733c-26.275-28.562-54.416-56.176-81.668-82.917c-9.3-9.126-18.891-18.537-28.324-27.904
	c-29.99-0.379-40.946-17.675-52.538-35.974c-1.145-1.807-2.315-3.656-3.533-5.537c-1.988-3.07-4.331-6.307-6.596-9.438
	c-7.415-10.25-14.419-19.931-14.132-29.614c0.224-7.666,6.333-15.333,9.954-19.221c3.727-4,11.088-10.712,18.522-10.712
	c0.568,0,1.136,0.038,1.686,0.114c11.154,1.532,21.978,9.042,32.444,16.304c2.139,1.484,4.289,2.977,6.447,4.422
	c1.683,1.126,3.758,2.427,5.955,3.804c9.785,6.134,21.963,13.768,27.374,22.826c3.57,5.976,4.561,12.471,5.435,18.202
	c0.528,3.468,1.027,6.743,2.014,9.247c2.021,5.134,10.2,12.622,17.416,19.229c3.101,2.838,6.307,5.773,9.167,8.633
	c22.125,22.125,46.7,46.276,68.383,67.585c5.74,5.641,11.339,11.144,16.726,16.444c6.209-1.817,12.357-2.736,18.34-2.736
	c30.521,0,51.398,23.122,68.174,41.7c3.739,4.142,7.271,8.053,10.658,11.439c4.146,4.146,8.91,8.438,13.955,12.983
	c14.943,13.463,30.396,27.384,36.897,43.371c7.342,18.052,5.054,38.743-6.119,55.351c-10.728,15.946-27.471,25.093-45.937,25.096
	C1682.197,427.403,1682.194,427.403,1682.192,427.403z M1448.378,146.731l2.603,2.589c10.199,10.151,20.654,20.409,30.764,30.33
	c28.598,28.062,58.169,57.08,85.728,87.314l3.506,3.847l-1.83,4.872c-5.268,14.027-5.345,24.663-0.256,35.563
	c5.089,10.906,19.411,24.014,32.046,35.577c5.069,4.64,9.857,9.021,14.111,13.274c4.4,4.401,8.884,9.315,13.631,14.52
	c11.471,12.574,24.472,26.826,35.095,31.581c6.224,2.785,12.421,4.197,18.418,4.197c0.002,0,0.004,0,0.005,0
	c12.712-0.002,24.312-6.41,31.828-17.582c8.008-11.902,9.681-26.649,4.476-39.449c-5.031-12.371-19.639-25.531-32.526-37.143
	c-5.214-4.697-10.14-9.135-14.598-13.592c-3.693-3.694-7.366-7.762-11.255-12.068c-15.275-16.917-32.588-36.091-55.551-36.091
	c-5.626,0-11.56,1.146-17.636,3.406l-5.074,1.887l-3.857-3.798c-6.503-6.403-13.354-13.137-20.419-20.08
	c-21.708-21.333-46.312-45.512-68.488-67.689c-2.596-2.595-5.524-5.276-8.625-8.115c-8.995-8.235-18.296-16.75-21.758-25.543
	c-1.686-4.281-2.354-8.669-3.001-12.914c-0.7-4.592-1.361-8.929-3.222-12.042c-3.312-5.545-14.442-12.521-21.808-17.139
	c-2.309-1.447-4.489-2.814-6.384-4.083c-2.255-1.51-4.505-3.07-6.68-4.58c-8.471-5.877-17.218-11.946-24.203-13.286
	c-3.775,1.611-11.181,9.989-11.709,13.397c-0.04,3.935,6.286,12.68,10.913,19.075c2.392,3.305,4.864,6.724,7.091,10.162
	c1.25,1.93,2.452,3.827,3.626,5.681c11.089,17.507,17.783,28.074,39.181,28.074c0.715,0,1.446-0.012,2.191-0.036L1448.378,146.731z"
	/>
<path d="M1420.322,426.836c-19.938,0-38.829-10.952-49.303-28.583c-10.481-17.645-10.744-38.316-0.722-56.717
	c8.568-15.734,27.726-33.043,44.628-48.315c3.786-3.42,7.361-6.651,10.582-9.657c13.715-12.801,26.591-25.648,39.043-38.073
	c6.542-6.528,12.722-12.694,18.915-18.752l5.822-5.693l5.94,5.569c18.382,17.233,34.438,33.289,50.527,50.53l4.646,4.977
	l-3.84,5.622c-2.363,3.459-1.726,7.773-0.488,14.526c0.952,5.201,2.032,11.097,0.577,16.916c-1.362,5.45-7.54,11.927-20.335,24.408
	c-1.708,1.667-3.313,3.232-4.688,4.607c-4.764,4.764-9.245,9.585-13.2,13.839c-3.408,3.667-6.627,7.13-9.582,10.085
	c-4.494,4.493-9.077,9.509-13.509,14.358c-11.411,12.486-23.21,25.398-36.223,32.632
	C1439.896,424.238,1430.21,426.836,1420.322,426.836z M1489.534,244.626c-4.228,4.18-8.515,8.457-12.971,12.903
	c-12.55,12.523-25.528,25.474-39.45,38.468c-3.321,3.1-6.947,6.376-10.785,9.844c-15.108,13.65-33.911,30.639-41.094,43.83
	c-7.081,12.999-6.932,27.54,0.407,39.896c7.425,12.498,20.713,20.262,34.681,20.262c6.962,0,13.868-1.877,20.527-5.579
	c10.591-5.887,21.439-17.759,31.932-29.24c4.559-4.988,9.272-10.147,14.037-14.911c2.734-2.735,5.852-6.088,9.151-9.638
	c4.054-4.361,8.647-9.303,13.631-14.287c1.42-1.419,3.075-3.034,4.839-4.754c4.563-4.453,13.921-13.58,15.801-16.788
	c0.391-2.267-0.235-5.688-0.896-9.299c-1.068-5.829-2.442-13.333,0.017-20.806C1516.6,271.006,1503.73,258.111,1489.534,244.626z"/>
<path fill-rule="evenodd" clip-rule="evenodd" d="M1416.509,347.381c37.928-5.791,33.837,56.458-4.028,46.976
	C1388.555,388.358,1391.354,351.225,1416.509,347.381z M1417.906,358.521c20.179-3.085,18,30.028-2.138,24.979
	C1403.038,380.309,1404.526,360.559,1417.906,358.521z"/>
</svg>
